<?xml version="1.0" encoding="UTF-8" standalone="no"?>
<!-- Created with Inkscape (http://www.inkscape.org/) -->

<svg
   version="1.1"
   id="svg2"
   xml:space="preserve"
   width="827.52667"
   height="483.64932"
   viewBox="0 0 827.52667 483.64932"
   sodipodi:docname="secuencia_reserva_ovpges.pdf"
   xmlns:inkscape="http://www.inkscape.org/namespaces/inkscape"
   xmlns:sodipodi="http://sodipodi.sourceforge.net/DTD/sodipodi-0.dtd"
   xmlns="http://www.w3.org/2000/svg"
   xmlns:svg="http://www.w3.org/2000/svg"><defs
     id="defs6" /><sodipodi:namedview
     id="namedview4"
     pagecolor="#ffffff"
     bordercolor="#666666"
     borderopacity="1.0"
     inkscape:pageshadow="2"
     inkscape:pageopacity="0.0"
     inkscape:pagecheckerboard="0" /><g
     id="g8"
     inkscape:groupmode="layer"
     inkscape:label="secuencia_reserva_ovpges"
     transform="matrix(1.3333333,0,0,-1.3333333,0,483.64933)"><g
       id="g10"
       transform="translate(52.193,330.386)"><g
         id="g12"><g
           id="g14" /><g
           id="g16"><g
             id="g18"><g
               id="g20"><path
                 d="m 32.86583,17.00804 h -65.73166 c -2.20094,0 -3.98511,-1.78416 -3.98511,-3.98511 v -26.04586 c 0,-2.20095 1.78417,-3.98511 3.98511,-3.98511 h 65.73166 c 2.20094,0 3.98511,1.78416 3.98511,3.98511 v 26.04586 c 0,2.20095 -1.78417,3.98511 -3.98511,3.98511 z"
                 style="fill:#e6e6ff;fill-opacity:1;fill-rule:nonzero;stroke:#666666;stroke-width:0.79701;stroke-linecap:butt;stroke-linejoin:miter;stroke-miterlimit:10;stroke-dasharray:none;stroke-opacity:1"
                 id="path22" /></g><g
               id="g24"
               transform="translate(-14.456,-3.113)"><g
                 id="g26"><g
                   id="g28"
                   transform="translate(-37.737,-327.273)"><text
                     transform="matrix(1,0,0,-1,37.737,327.273)"
                     style="font-variant:normal;font-weight:normal;font-size:8.9664px;font-family:CMSSBX10;-inkscape-font-specification:CMSSBX10;writing-mode:lr-tb;fill:#000000;fill-opacity:1;fill-rule:nonzero;stroke:none"
                     id="text32"><tspan
                       x="0 5.7537389 9.5348701 13.918543 18.850063 21.141874 25.571276"
                       y="0"
                       sodipodi:role="line"
                       id="tspan30">Escolar</tspan></text><g
                     id="g34"
                     transform="translate(37.737,327.273)" /></g></g><g
                 id="g36"
                 transform="translate(14.456,3.113)" /></g></g><g
             id="g38"><g
               id="g40"><path
                 d="M 149.88496,17.00804 H 84.15327 c -2.20094,0 -3.9851,-1.78416 -3.9851,-3.98511 v -26.04586 c 0,-2.20095 1.78416,-3.98511 3.9851,-3.98511 h 65.73169 c 2.20094,0 3.98511,1.78416 3.98511,3.98511 v 26.04586 c 0,2.20095 -1.78417,3.98511 -3.98511,3.98511 z"
                 style="fill:#e6f2f2;fill-opacity:1;fill-rule:nonzero;stroke:#666666;stroke-width:0.79701;stroke-linecap:butt;stroke-linejoin:miter;stroke-miterlimit:10;stroke-dasharray:none;stroke-opacity:1"
                 id="path42" /></g><g
               id="g44"
               transform="translate(91.027,-7.472)"><g
                 id="g46"><g
                   id="g48"
                   transform="translate(-143.22,-322.914)"><text
                     transform="matrix(1,0,0,-1,143.22,333.873)"
                     style="font-variant:normal;font-weight:normal;font-size:8.9664px;font-family:CMSSBX10;-inkscape-font-specification:CMSSBX10;writing-mode:lr-tb;fill:#000000;fill-opacity:1;fill-rule:nonzero;stroke:none"
                     id="text52"><tspan
                       x="0 9.0372343 13.619962 21.941677 28.297062 28.243263 33.274311 38.305359 40.597168 42.888981 47.272655"
                       y="0"
                       sodipodi:role="line"
                       id="tspan50">WebP´ublica</tspan></text><text
                     transform="matrix(1,0,0,-1,150.925,322.914)"
                     style="font-variant:normal;font-weight:normal;font-size:8.9664px;font-family:CMSSBX10;-inkscape-font-specification:CMSSBX10;writing-mode:lr-tb;fill:#000000;fill-opacity:1;fill-rule:nonzero;stroke:none"
                     id="text56"><tspan
                       x="0 3.8358259 10.958735 15.541461 20.024662 23.64888 26.389011 28.954298 32.735428"
                       y="0"
                       sodipodi:role="line"
                       id="tspan54">(Next.js)</tspan></text><g
                     id="g58"
                     transform="translate(143.22,322.914)" /></g></g><g
                 id="g60"
                 transform="translate(-91.027,7.472)" /></g></g><g
             id="g62"><g
               id="g64"><path
                 d="m 281.0775,17.00804 h -65.73167 c -2.20095,0 -3.98511,-1.78416 -3.98511,-3.98511 v -26.04586 c 0,-2.20095 1.78416,-3.98511 3.98511,-3.98511 h 65.73167 c 2.20094,0 3.9851,1.78416 3.9851,3.98511 v 26.04586 c 0,2.20095 -1.78416,3.98511 -3.9851,3.98511 z"
                 style="fill:#fffee6;fill-opacity:1;fill-rule:nonzero;stroke:#666666;stroke-width:0.79701;stroke-linecap:butt;stroke-linejoin:miter;stroke-miterlimit:10;stroke-dasharray:none;stroke-opacity:1"
                 id="path66" /></g><g
               id="g68"
               transform="translate(216.021,-7.472)"><g
                 id="g70"><g
                   id="g72"
                   transform="translate(-268.214,-322.914)"><text
                     transform="matrix(1,0,0,-1,275.889,333.873)"
                     style="font-variant:normal;font-weight:normal;font-size:8.9664px;font-family:CMSSBX10;-inkscape-font-specification:CMSSBX10;writing-mode:lr-tb;fill:#000000;fill-opacity:1;fill-rule:nonzero;stroke:none"
                     id="text76"><tspan
                       x="0 6.0236278 10.955148 14.736279 18.360497 23.292017 26.629311 31.212038 36.691406 43.82328"
                       y="0"
                       sodipodi:role="line"
                       id="tspan74">PostgreSQL</tspan></text><text
                     transform="matrix(1,0,0,-1,268.214,322.914)"
                     style="font-variant:normal;font-weight:normal;font-size:8.9664px;font-family:CMSSBX10;-inkscape-font-specification:CMSSBX10;writing-mode:lr-tb;fill:#000000;fill-opacity:1;fill-rule:nonzero;stroke:none"
                     id="text80"><tspan
                       x="0 3.8358259 9.5859785 12.923272 17.630632 22.66168 26.44281 31.150169 35.533844 39.917515 42.209328 47.140846 52.171894 56.754623 60.535751"
                       y="0"
                       sodipodi:role="line"
                       id="tspan78">(Transacciones)</tspan></text><g
                     id="g82"
                     transform="translate(268.214,322.914)" /></g></g><g
                 id="g84"
                 transform="translate(-216.021,7.472)" /></g></g><g
             id="g86"><g
               id="g88"><path
                 d="m 417.93932,17.00804 h -65.73168 c -2.20094,0 -3.98511,-1.78416 -3.98511,-3.98511 v -26.04586 c 0,-2.20095 1.78417,-3.98511 3.98511,-3.98511 h 65.73168 c 2.20094,0 3.9851,1.78416 3.9851,3.98511 v 26.04586 c 0,2.20095 -1.78416,3.98511 -3.9851,3.98511 z"
                 style="fill:#e6ffe6;fill-opacity:1;fill-rule:nonzero;stroke:#666666;stroke-width:0.79701;stroke-linecap:butt;stroke-linejoin:miter;stroke-miterlimit:10;stroke-dasharray:none;stroke-opacity:1"
                 id="path90" /></g><g
               id="g92"
               transform="translate(357.422,-8.841)"><g
                 id="g94"><g
                   id="g96"
                   transform="translate(-409.615,-321.545)"><text
                     transform="matrix(1,0,0,-1,409.615,332.503)"
                     style="font-variant:normal;font-weight:normal;font-size:8.9664px;font-family:CMSSBX10;-inkscape-font-specification:CMSSBX10;writing-mode:lr-tb;fill:#000000;fill-opacity:1;fill-rule:nonzero;stroke:none"
                     id="text100"><tspan
                       x="0 5.7537389 10.784786 15.716306 23.589703 28.791111 33.822159 38.853203 43.236877 50.36158"
                       y="0"
                       sodipodi:role="line"
                       id="tspan98">EdgeFunc./</tspan></text><text
                     transform="matrix(1,0,0,-1,417.971,321.545)"
                     style="font-variant:normal;font-weight:normal;font-size:8.9664px;font-family:CMSSBX10;-inkscape-font-specification:CMSSBX10;writing-mode:lr-tb;fill:#000000;fill-opacity:1;fill-rule:nonzero;stroke:none"
                     id="text104"><tspan
                       x="0 9.0372343 13.619962 18.651009 23.682056 28.891535 33.823055"
                       y="0"
                       sodipodi:role="line"
                       id="tspan102">Webhook</tspan></text><g
                     id="g106"
                     transform="translate(409.615,321.545)" /></g></g><g
                 id="g108"
                 transform="translate(-357.422,8.841)" /></g></g><g
             id="g110"><g
               id="g112"><path
                 d="m 549.13187,17.00804 h -65.73169 c -2.20095,0 -3.98511,-1.78416 -3.98511,-3.98511 v -26.04586 c 0,-2.20095 1.78416,-3.98511 3.98511,-3.98511 h 65.73169 c 2.20094,0 3.9851,1.78416 3.9851,3.98511 v 26.04586 c 0,2.20095 -1.78416,3.98511 -3.9851,3.98511 z"
                 style="fill:#f9e6ec;fill-opacity:1;fill-rule:nonzero;stroke:#666666;stroke-width:0.79701;stroke-linecap:butt;stroke-linejoin:miter;stroke-miterlimit:10;stroke-dasharray:none;stroke-opacity:1"
                 id="path114" /></g><g
               id="g116"
               transform="translate(489.578,-8.592)"><g
                 id="g118"><g
                   id="g120"
                   transform="translate(-541.771,-321.794)"><text
                     transform="matrix(1,0,0,-1,541.771,332.753)"
                     style="font-variant:normal;font-weight:normal;font-size:8.9664px;font-family:CMSSBX10;-inkscape-font-specification:CMSSBX10;writing-mode:lr-tb;fill:#000000;fill-opacity:1;fill-rule:nonzero;stroke:none"
                     id="text124"><tspan
                       x="0 6.5750613 11.784539 16.716059 21.647579 23.939392 31.803822 40.571167 45.153893 49.736622"
                       y="0"
                       sodipodi:role="line"
                       id="tspan122">GoogleMeet</tspan></text><text
                     transform="matrix(1,0,0,-1,560.532,321.794)"
                     style="font-variant:normal;font-weight:normal;font-size:8.9664px;font-family:CMSSBX10;-inkscape-font-specification:CMSSBX10;writing-mode:lr-tb;fill:#000000;fill-opacity:1;fill-rule:nonzero;stroke:none"
                     id="text128"><tspan
                       x="0 6.5750613 12.876647"
                       y="0"
                       sodipodi:role="line"
                       id="tspan126">API</tspan></text><g
                     id="g130"
                     transform="translate(541.771,321.794)" /></g></g><g
                 id="g132"
                 transform="translate(-489.578,8.592)" /></g></g><g
             id="g134"><path
               d="M 0,-17.40654 V -315.04805"
               style="fill:none;stroke:#cccccc;stroke-width:0.79701;stroke-linecap:butt;stroke-linejoin:miter;stroke-miterlimit:10;stroke-dasharray:2.98883, 2.98883;stroke-dashoffset:0;stroke-opacity:1"
               id="path136" /></g><g
             id="g138"><path
               d="M 117.01912,-17.40654 V -315.04805"
               style="fill:none;stroke:#cccccc;stroke-width:0.79701;stroke-linecap:butt;stroke-linejoin:miter;stroke-miterlimit:10;stroke-dasharray:2.98883, 2.98883;stroke-dashoffset:0;stroke-opacity:1"
               id="path140" /></g><g
             id="g142"><path
               d="M 248.21167,-17.40654 V -315.04805"
               style="fill:none;stroke:#cccccc;stroke-width:0.79701;stroke-linecap:butt;stroke-linejoin:miter;stroke-miterlimit:10;stroke-dasharray:2.98883, 2.98883;stroke-dashoffset:0;stroke-opacity:1"
               id="path144" /></g><g
             id="g146"><path
               d="M 385.07347,-17.40654 V -315.04805"
               style="fill:none;stroke:#cccccc;stroke-width:0.79701;stroke-linecap:butt;stroke-linejoin:miter;stroke-miterlimit:10;stroke-dasharray:2.98883, 2.98883;stroke-dashoffset:0;stroke-opacity:1"
               id="path148" /></g><g
             id="g150"><path
               d="M 516.26602,-17.40654 V -315.04805"
               style="fill:none;stroke:#cccccc;stroke-width:0.79701;stroke-linecap:butt;stroke-linejoin:miter;stroke-miterlimit:10;stroke-dasharray:2.98883, 2.98883;stroke-dashoffset:0;stroke-opacity:1"
               id="path152" /></g><g
             id="g154"><path
               d="M 0,-42.5202 H 112.90877"
               style="fill:none;stroke:#0000b3;stroke-width:0.79701;stroke-linecap:butt;stroke-linejoin:miter;stroke-miterlimit:10;stroke-dasharray:none;stroke-opacity:1"
               id="path156" /><g
               id="g158"><g
                 id="g160"
                 transform="translate(110.4437,-42.5202)"><g
                   id="g162"><path
                     d="M 5.44046,0 1.28699,1.5706 2.66432,0 1.28699,-1.5706 Z"
                     style="fill:#0000b3;fill-opacity:1;fill-rule:nonzero;stroke:#0000b3;stroke-width:0.79701;stroke-linecap:butt;stroke-linejoin:miter;stroke-miterlimit:10;stroke-dasharray:none;stroke-opacity:1"
                     id="path164" /></g></g></g><g
               id="g166"><g
                 id="g168"
                 transform="translate(28.034,-40.128)"><g
                   id="g170"><g
                     id="g172"
                     transform="translate(-80.227,-290.258)"><text
                       transform="matrix(1,0,0,-1,80.227,290.258)"
                       style="font-variant:normal;font-weight:normal;font-size:6.9738px;font-family:CMSS8;-inkscape-font-specification:CMSS8;writing-mode:lr-tb;fill:#000000;fill-opacity:1;fill-rule:nonzero;stroke:none"
                       id="text176"><tspan
                         x="0 3.7051799 9.0547819 13.788597 17.493778 21.319605 25.291183 27.821976 33.706467 39.734619 43.560448 47.063385 49.594177 52.944393 55.475185 57.243042"
                         y="0"
                         sodipodi:role="line"
                         id="tspan174">1.Confrmahorario</tspan></text><g
                       id="g178"
                       transform="translate(80.227,290.258)" /></g></g><g
                   id="g180"
                   transform="translate(-28.034,40.128)" /></g></g></g><g
             id="g182"><path
               d="M 117.01912,-70.867 H 244.1013"
               style="fill:none;stroke:#0000b3;stroke-width:0.79701;stroke-linecap:butt;stroke-linejoin:miter;stroke-miterlimit:10;stroke-dasharray:none;stroke-opacity:1"
               id="path184" /><g
               id="g186"><g
                 id="g188"
                 transform="translate(241.63623,-70.867)"><g
                   id="g190"><path
                     d="M 5.44046,0 1.28699,1.5706 2.66432,0 1.28699,-1.5706 Z"
                     style="fill:#0000b3;fill-opacity:1;fill-rule:nonzero;stroke:#0000b3;stroke-width:0.79701;stroke-linecap:butt;stroke-linejoin:miter;stroke-miterlimit:10;stroke-dasharray:none;stroke-opacity:1"
                     id="path192" /></g></g></g><g
               id="g194"><g
                 id="g196"
                 transform="translate(140.649,-66.731)"><g
                   id="g198"><g
                     id="g200"
                     transform="translate(-192.842,-263.655)"><text
                       transform="matrix(1,0,0,-1,192.842,263.655)"
                       style="font-variant:normal;font-weight:normal;font-size:6.9738px;font-family:CMSS8;-inkscape-font-specification:CMSS8;writing-mode:lr-tb;fill:#000000;fill-opacity:1;fill-rule:nonzero;stroke:none"
                       id="text204"><tspan
                         x="0 3.7051799 9.0547819 13.84927 18.583084 25.792599 29.820665 33.735062 37.433266"
                         y="0"
                         sodipodi:role="line"
                         id="tspan202">2.RPCbook</tspan></text><g
                       id="g206"
                       transform="translate(234.343,263.854)"><path
                         d="M 0,0 H 2.223"
                         style="fill:none;stroke:#000000;stroke-width:0.398;stroke-linecap:butt;stroke-linejoin:miter;stroke-miterlimit:10;stroke-dasharray:none;stroke-opacity:1"
                         id="path208" /></g><text
                       transform="matrix(1,0,0,-1,236.566,263.655)"
                       style="font-variant:normal;font-weight:normal;font-size:6.9738px;font-family:CMSS8;-inkscape-font-specification:CMSS8;writing-mode:lr-tb;fill:#000000;fill-opacity:1;fill-rule:nonzero;stroke:none"
                       id="text212"><tspan
                         x="0 3.7051799 7.1195526 10.945379 14.650559 17.943588"
                         y="0"
                         sodipodi:role="line"
                         id="tspan210">ovpges</tspan></text><g
                       id="g214"
                       transform="translate(257.795,263.854)"><path
                         d="M 0,0 H 2.223"
                         style="fill:none;stroke:#000000;stroke-width:0.398;stroke-linecap:butt;stroke-linejoin:miter;stroke-miterlimit:10;stroke-dasharray:none;stroke-opacity:1"
                         id="path216" /></g><text
                       transform="matrix(1,0,0,-1,260.018,263.655)"
                       style="font-variant:normal;font-weight:normal;font-size:6.9738px;font-family:CMSS8;-inkscape-font-specification:CMSS8;writing-mode:lr-tb;fill:#000000;fill-opacity:1;fill-rule:nonzero;stroke:none"
                       id="text220"><tspan
                         x="0 2.8404288 4.6082869 8.313467 10.989314 13.870888"
                         y="0"
                         sodipodi:role="line"
                         id="tspan218">slot()</tspan></text><g
                       id="g222"
                       transform="translate(192.842,263.655)" /></g></g><g
                   id="g224"
                   transform="translate(-140.649,66.731)" /></g></g></g><g
             id="g226"><path
               d="m 248.21167,-85.04042 h 36.69652 c 1.65071,0 2.98883,-1.33812 2.98883,-2.98883 v -36.54255 c 0,-1.6507 -1.33812,-2.98882 -2.98883,-2.98882 h -32.58617"
               style="fill:none;stroke:#006666;stroke-width:0.79701;stroke-linecap:butt;stroke-linejoin:miter;stroke-miterlimit:10;stroke-dasharray:none;stroke-opacity:1"
               id="path228" /><g
               id="g230"><g
                 id="g232"
                 transform="rotate(180,127.39355,-63.78031)"><g
                   id="g234"><path
                     d="M 5.44046,0 1.28699,1.5706 2.66432,0 1.28699,-1.5706 Z"
                     style="fill:#006666;fill-opacity:1;fill-rule:nonzero;stroke:#006666;stroke-width:0.79701;stroke-linecap:butt;stroke-linejoin:miter;stroke-miterlimit:10;stroke-dasharray:none;stroke-opacity:1"
                     id="path236" /></g></g></g><g
               id="g238"><g
                 id="g240"
                 transform="translate(291.612,-116.69)"><g
                   id="g242"><g
                     id="g244"
                     transform="translate(-343.805,-213.696)"><text
                       transform="matrix(1,0,0,-1,343.805,229.636)"
                       style="font-variant:normal;font-weight:normal;font-size:6.9738px;font-family:CMSS8;-inkscape-font-specification:CMSS8;writing-mode:lr-tb;fill:#000000;fill-opacity:1;fill-rule:nonzero;stroke:none"
                       id="text248"><tspan
                         x="0 3.7051799 9.0547819 13.501974 16.032766 19.592194 23.41802 26.25845 29.817877 33.110905 36.403934 38.171791 38.166908 41.872089 48.173615 52.290249 57.762592 61.794144"
                         y="0"
                         sodipodi:role="line"
                         id="tspan246">3.Transacci´onSQL:</tspan></text><text
                       transform="matrix(1,0,0,-1,343.805,221.666)"
                       style="font-variant:normal;font-weight:normal;font-size:6.9738px;font-family:CMSS8;-inkscape-font-specification:CMSS8;writing-mode:lr-tb;fill:#000000;fill-opacity:1;fill-rule:nonzero;stroke:none"
                       id="text252"><tspan
                         x="0 4.9388452 6.9968138 10.82264 13.663069 16.956097 19.486889 22.162737 28.190889 31.483917 34.324345 37.617374 41.322556 43.090412 46.447601"
                         y="0"
                         sodipodi:role="line"
                         id="tspan250">-Insertaescolar</tspan></text><text
                       transform="matrix(1,0,0,-1,343.805,213.696)"
                       style="font-variant:normal;font-weight:normal;font-size:6.9738px;font-family:CMSS8;-inkscape-font-specification:CMSS8;writing-mode:lr-tb;fill:#000000;fill-opacity:1;fill-rule:nonzero;stroke:none"
                       id="text256"><tspan
                         x="0 4.9388452 10.02414 14.757956 19.90741 24.226284 29.28717 36.1996 39.040031 41.715878 45.275303 47.951153 51.776978 54.617405 60.380554 62.438522 66.473564 70.380981 74.086166 77.504021 80.79705 84.622879"
                         y="0"
                         sodipodi:role="line"
                         id="tspan254">-UPDATEstatus=’booked’</tspan></text><g
                       id="g258"
                       transform="translate(343.805,213.696)" /></g></g><g
                   id="g260"
                   transform="translate(-291.612,116.69)" /></g></g></g><g
             id="g262"><path
               d="M 248.21167,-141.73404 H 121.12947"
               style="fill:none;stroke:#595959;stroke-width:0.79701;stroke-linecap:butt;stroke-linejoin:miter;stroke-miterlimit:10;stroke-dasharray:2.98883, 2.98883;stroke-dashoffset:0;stroke-opacity:1"
               id="path264" /><g
               id="g266"><g
                 id="g268"
                 transform="rotate(180,61.79728,-70.86702)"><g
                   id="g270"><path
                     d="M 5.44046,0 1.28699,1.5706 2.66432,0 1.28699,-1.5706 Z"
                     style="fill:#595959;fill-opacity:1;fill-rule:nonzero;stroke:#595959;stroke-width:0.79701;stroke-linecap:butt;stroke-linejoin:miter;stroke-miterlimit:10;stroke-dasharray:none;stroke-opacity:1"
                     id="path272" /></g></g></g><g
               id="g274"><g
                 id="g276"
                 transform="translate(154.359,-139.341)"><g
                   id="g278"><g
                     id="g280"
                     transform="translate(-206.552,-191.045)"><text
                       transform="matrix(1,0,0,-1,206.552,191.045)"
                       style="font-variant:normal;font-weight:normal;font-size:6.9738px;font-family:CMSS8;-inkscape-font-specification:CMSS8;writing-mode:lr-tb;fill:#000000;fill-opacity:1;fill-rule:nonzero;stroke:none"
                       id="text284"><tspan
                         x="0 3.7051799 9.0547819 13.84927 17.142298 19.982727 23.275755 25.806547 29.220919 35.249073 38.542099 41.956474 43.724331 46.400177 50.105358 52.945786"
                         y="0"
                         sodipodi:role="line"
                         id="tspan282">4.Reservaexitosa</tspan></text><g
                       id="g286"
                       transform="translate(206.552,191.045)" /></g></g><g
                   id="g288"
                   transform="translate(-154.359,139.341)" /></g></g></g><g
             id="g290"><path
               d="M 117.01912,-161.5767 H 4.11035"
               style="fill:none;stroke:#595959;stroke-width:0.79701;stroke-linecap:butt;stroke-linejoin:miter;stroke-miterlimit:10;stroke-dasharray:2.98883, 2.98883;stroke-dashoffset:0;stroke-opacity:1"
               id="path292" /><g
               id="g294"><g
                 id="g296"
                 transform="rotate(180,3.28771,-80.78835)"><g
                   id="g298"><path
                     d="M 5.44046,0 1.28699,1.5706 2.66432,0 1.28699,-1.5706 Z"
                     style="fill:#595959;fill-opacity:1;fill-rule:nonzero;stroke:#595959;stroke-width:0.79701;stroke-linecap:butt;stroke-linejoin:miter;stroke-miterlimit:10;stroke-dasharray:none;stroke-opacity:1"
                     id="path300" /></g></g></g><g
               id="g302"><g
                 id="g304"
                 transform="translate(19.216,-157.827)"><g
                   id="g306"><g
                     id="g308"
                     transform="translate(-71.409,-172.559)"><text
                       transform="matrix(1,0,0,-1,71.409,172.559)"
                       style="font-variant:normal;font-weight:normal;font-size:6.9738px;font-family:CMSS8;-inkscape-font-specification:CMSS8;writing-mode:lr-tb;fill:#000000;fill-opacity:1;fill-rule:nonzero;stroke:none"
                       id="text312"><tspan
                         x="0 3.7051799 9.0547819 15.520192 19.346018 22.639048 25.479475 28.155323 30.686115 36.714268 40.540092 44.106495 47.932323 50.60817 54.167595 55.935455 57.696339 63.522251 63.726585 67.019615 70.433983 72.201843 74.877693"
                         y="0"
                         sodipodi:role="line"
                         id="tspan310">5.Muestrapantalla´exito</tspan></text><g
                       id="g314"
                       transform="translate(71.409,172.559)" /></g></g><g
                   id="g316"
                   transform="translate(-19.216,157.827)" /></g></g></g><g
             id="g318"><path
               d="M 248.21167,-184.25424 H 380.96312"
               style="fill:none;stroke:#e67300;stroke-width:0.79701;stroke-linecap:butt;stroke-linejoin:miter;stroke-miterlimit:10;stroke-dasharray:none;stroke-opacity:1"
               id="path320" /><g
               id="g322"><g
                 id="g324"
                 transform="translate(378.49805,-184.25424)"><g
                   id="g326"><path
                     d="M 5.44046,0 1.28699,1.5706 2.66432,0 1.28699,-1.5706 Z"
                     style="fill:#e67300;fill-opacity:1;fill-rule:nonzero;stroke:#e67300;stroke-width:0.79701;stroke-linecap:butt;stroke-linejoin:miter;stroke-miterlimit:10;stroke-dasharray:none;stroke-opacity:1"
                     id="path328" /></g></g></g><g
               id="g330"><g
                 id="g332"
                 transform="translate(255.583,-180.117)"><g
                   id="g334"><g
                     id="g336"
                     transform="translate(-307.776,-150.269)"><text
                       transform="matrix(1,0,0,-1,307.776,150.269)"
                       style="font-variant:normal;font-weight:normal;font-size:6.9738px;font-family:CMSS8;-inkscape-font-specification:CMSS8;writing-mode:lr-tb;fill:#000000;fill-opacity:1;fill-rule:nonzero;stroke:none"
                       id="text340"><tspan
                         x="0 3.7051799 9.0547819 14.406476 16.174334 19.014763 22.84059 26.197777 28.728569 34.756721 41.545715 44.838745 48.66457 52.490398 56.404793 60.10997 66.198799 69.080368 73.520592 76.051384 77.819237 81.524422 85.229599 88.522629 93.522148 95.580116 100.81744 104.93407 109.3708 114.16529 119.22617"
                         y="0"
                         sodipodi:role="line"
                         id="tspan338">6.DisparaWebhook(TriggerINSERT)</tspan></text><g
                       id="g342"
                       transform="translate(307.776,150.269)" /></g></g><g
                   id="g344"
                   transform="translate(-255.583,180.117)" /></g></g></g><g
             id="g346"><path
               d="m 385.07347,-212.60106 h 127.0822"
               style="fill:none;stroke:#0000b3;stroke-width:0.79701;stroke-linecap:butt;stroke-linejoin:miter;stroke-miterlimit:10;stroke-dasharray:none;stroke-opacity:1"
               id="path348" /><g
               id="g350"><g
                 id="g352"
                 transform="translate(509.69058,-212.60106)"><g
                   id="g354"><path
                     d="M 5.44046,0 1.28699,1.5706 2.66432,0 1.28699,-1.5706 Z"
                     style="fill:#0000b3;fill-opacity:1;fill-rule:nonzero;stroke:#0000b3;stroke-width:0.79701;stroke-linecap:butt;stroke-linejoin:miter;stroke-miterlimit:10;stroke-dasharray:none;stroke-opacity:1"
                     id="path356" /></g></g></g><g
               id="g358"><g
                 id="g360"
                 transform="translate(407.963,-208.463)"><g
                   id="g362"><g
                     id="g364"
                     transform="translate(-460.156,-121.923)"><text
                       transform="matrix(1,0,0,-1,460.156,121.923)"
                       style="font-variant:normal;font-weight:normal;font-size:6.9738px;font-family:CMSS8;-inkscape-font-specification:CMSS8;writing-mode:lr-tb;fill:#000000;fill-opacity:1;fill-rule:nonzero;stroke:none"
                       id="text368"><tspan
                         x="0 3.7051799 9.0547819 13.788597 19.260939 23.377573 30.907185 34.612366 40.496857 43.789886 47.082912 49.758759 51.526619 55.352444 59.057625 64.373756 67.255325 72.19487 76.020699 78.696541 82.522369"
                         y="0"
                         sodipodi:role="line"
                         id="tspan366">7.POST/meetings(Auth)</tspan></text><g
                       id="g370"
                       transform="translate(460.156,121.923)" /></g></g><g
                   id="g372"
                   transform="translate(-407.963,208.463)" /></g></g></g><g
             id="g374"><path
               d="M 516.26602,-240.94788 H 389.18384"
               style="fill:none;stroke:#595959;stroke-width:0.79701;stroke-linecap:butt;stroke-linejoin:miter;stroke-miterlimit:10;stroke-dasharray:2.98883, 2.98883;stroke-dashoffset:0;stroke-opacity:1"
               id="path376" /><g
               id="g378"><g
                 id="g380"
                 transform="rotate(180,195.82445,-120.47394)"><g
                   id="g382"><path
                     d="M 5.44046,0 1.28699,1.5706 2.66432,0 1.28699,-1.5706 Z"
                     style="fill:#595959;fill-opacity:1;fill-rule:nonzero;stroke:#595959;stroke-width:0.79701;stroke-linecap:butt;stroke-linejoin:miter;stroke-miterlimit:10;stroke-dasharray:none;stroke-opacity:1"
                     id="path384" /></g></g></g><g
               id="g386"><g
                 id="g388"
                 transform="translate(399.818,-236.81)"><g
                   id="g390"><g
                     id="g392"
                     transform="translate(-452.011,-93.576)"><text
                       transform="matrix(1,0,0,-1,452.011,93.576)"
                       style="font-variant:normal;font-weight:normal;font-size:6.9738px;font-family:CMSS8;-inkscape-font-specification:CMSS8;writing-mode:lr-tb;fill:#000000;fill-opacity:1;fill-rule:nonzero;stroke:none"
                       id="text396"><tspan
                         x="0 3.7051799 9.0547819 13.84927 17.142298 19.818146 23.321085 25.851877 29.677704 35.705856 41.590347 44.883377 48.176407 50.852253 52.910221 56.615402 60.52282 64.227997 67.933182 69.701042 72.994064 75.052032 78.345062 82.050247 87.934738 91.639915 95.054291 98.468658"
                         y="0"
                         sodipodi:role="line"
                         id="tspan394">8.Retornameet.google.com/xyz</tspan></text><g
                       id="g398"
                       transform="translate(452.011,93.576)" /></g></g><g
                   id="g400"
                   transform="translate(-399.818,236.81)" /></g></g></g><g
             id="g402"><path
               d="M 385.07347,-269.29468 H 252.32202"
               style="fill:none;stroke:#0000b3;stroke-width:0.79701;stroke-linecap:butt;stroke-linejoin:miter;stroke-miterlimit:10;stroke-dasharray:none;stroke-opacity:1"
               id="path404" /><g
               id="g406"><g
                 id="g408"
                 transform="rotate(180,127.39355,-134.64734)"><g
                   id="g410"><path
                     d="M 5.44046,0 1.28699,1.5706 2.66432,0 1.28699,-1.5706 Z"
                     style="fill:#0000b3;fill-opacity:1;fill-rule:nonzero;stroke:#0000b3;stroke-width:0.79701;stroke-linecap:butt;stroke-linejoin:miter;stroke-miterlimit:10;stroke-dasharray:none;stroke-opacity:1"
                     id="path412" /></g></g></g><g
               id="g414"><g
                 id="g416"
                 transform="translate(262.248,-265.156)"><g
                   id="g418"><g
                     id="g420"
                     transform="translate(-314.441,-65.23)"><text
                       transform="matrix(1,0,0,-1,314.441,65.23)"
                       style="font-variant:normal;font-weight:normal;font-size:6.9738px;font-family:CMSS8;-inkscape-font-specification:CMSS8;writing-mode:lr-tb;fill:#000000;fill-opacity:1;fill-rule:nonzero;stroke:none"
                       id="text424"><tspan
                         x="0 3.7051799 9.0547819 14.140077 18.873892 24.023346 28.34222 33.403107 40.315536 42.846329 46.139359 49.84454 51.612396 54.452824 57.128674 59.659466 65.833366 68.714943 72.42012 76.245949 79.603134 82.133926 85.959755 91.987907 97.073204 101.86769 105.89925"
                         y="0"
                         sodipodi:role="line"
                         id="tspan422">9.UPDATEregistro(guardaURL)</tspan></text><g
                       id="g426"
                       transform="translate(314.441,65.23)" /></g></g><g
                   id="g428"
                   transform="translate(-262.248,265.156)" /></g></g></g></g></g></g></g></svg>
